<svg width="2109" height="1080" viewBox="0 0 2109 1080" fill="none" xmlns="http://www.w3.org/2000/svg">
<circle cx="977.831" cy="455.37" r="256.37" fill="#D7AF56"/>
<rect width="16.2436" height="409.743" rx="8.12181" transform="matrix(0.777366 0.629049 -0.706555 0.707658 1116.65 307.473)" fill="#1E1E1E"/>
<rect width="16.2436" height="409.743" rx="8.12181" transform="matrix(0.777366 -0.629049 0.706555 0.707658 827.14 314.897)" fill="#1E1E1E"/>
<path d="M929.342 252.135C929.921 247.487 933.409 246.519 935.343 246.519C937.279 246.519 939.071 246.519 939.071 246.519C939.071 246.519 939.798 243.47 941.977 243.47C942.944 243.47 947.932 243.47 947.932 243.47L951.029 242.502C952.192 243.276 950.644 245.406 950.644 245.406C950.644 245.406 952.771 247.101 952.771 253.685C952.771 260.269 952.771 258.287 952.771 260.418C952.771 266.479 959.475 269.999 962.56 265.712C965.361 261.819 973.307 242.356 973.307 242.356C974.116 240.597 975.882 239.471 977.818 239.481C979.756 239.491 981.51 240.632 982.302 242.399L986.452 251.646C986.755 252.321 987.409 252.77 988.147 252.811C988.884 252.852 989.583 252.477 989.959 251.84L994.602 243.945C995.553 242.329 997.336 241.39 999.207 241.522C1001.08 241.653 1002.71 242.832 1003.43 244.566L1012.7 267.04C1016.49 270.533 1018.04 274.02 1018.04 278.279C1018.04 282.54 1018.04 287.575 1018.04 289.898C1018.04 292.222 1014.16 292.609 1014.16 290.286C1014.16 287.961 1014.16 280.215 1014.16 280.215C1014.16 280.215 1011.45 278.279 1011.45 280.215C1011.45 282.152 1011.45 292.222 1011.45 294.933C1011.45 297.645 1014.55 300.356 1014.55 301.905C1014.55 303.455 1009.13 318.172 1009.13 318.172H1003.71C1003.71 318.172 1007.19 305.779 1007.19 304.229C1007.19 302.99 1003.82 298.996 1002.19 296.285C1002.36 298.798 1004.68 301.458 1004.53 302.874C1004.37 304.414 997.448 318.488 997.448 318.488L992.055 317.924C992.055 317.924 996.812 305.96 996.973 304.419C997.134 302.878 992.487 296.491 992.203 294.184C991.571 289.055 991.831 291.03 991.831 291.03C992 289.418 991.41 288.294 990.261 287.575C983.93 287.575 975.811 287.575 973.185 287.575C969.7 287.575 970.087 290.285 970.474 291.834C970.862 293.384 973.881 301.904 973.881 301.904L973.495 318.172H968.072C968.072 318.172 967.685 303.841 967.685 302.679C967.685 302.276 966.965 300.746 966.021 298.836C965.883 300.554 965.749 301.904 965.749 301.904L963.424 318.172H958.003C958.003 318.172 959.551 303.841 959.551 302.679C959.551 301.708 958.649 290.447 958.201 285.422C939.958 287.55 939.948 275.234 939.948 261.47C939.948 256.435 939.172 256.435 937.43 256.435C935.687 256.435 933.019 256.783 931.47 256.201C929.922 255.621 930.309 254.265 930.309 254.265C930.309 254.265 929.148 254.071 929.342 252.135Z" fill="#1E1E1E"/>
<ellipse cx="978.051" cy="320.699" rx="62.4754" ry="4.99804" fill="#1E1E1E"/>
<path d="M155.707 689.034C138.808 689.034 126.251 679.415 118.038 660.178C109.919 640.697 105.576 610.136 105.009 568.496C104.915 562.652 105.529 558.025 106.85 554.616C108.267 550.963 110.108 549.137 112.373 549.137C114.639 549.137 116.433 550.841 117.755 554.25C119.076 557.66 119.832 562.286 120.02 568.131C120.398 598.813 123.23 620.242 128.517 632.418C133.804 644.593 142.867 650.681 155.707 650.681H196.491C209.897 650.681 219.197 643.984 224.389 630.591C229.676 616.955 232.32 593.09 232.32 558.999C232.32 524.42 229.676 500.434 224.389 487.041C219.197 473.405 209.897 466.586 196.491 466.586H157.689C141.074 466.586 128.895 456.602 121.153 436.634C113.412 416.667 109.541 385.375 109.541 342.761C109.541 300.146 113.365 268.855 121.012 248.887C128.753 228.919 140.885 218.935 157.406 218.935H197.058C212.919 218.935 224.672 228.067 232.32 246.33C240.061 264.594 244.215 293.328 244.781 332.533C244.97 338.378 244.357 343.126 242.94 346.779C241.619 350.188 239.778 351.893 237.418 351.893C235.246 351.893 233.5 350.188 232.178 346.779C230.856 343.37 230.101 338.743 229.912 332.899C229.534 304.895 226.891 285.292 221.982 274.091C217.072 262.889 208.765 257.288 197.058 257.288H157.406C145.039 257.288 136.448 263.62 131.633 276.282C126.818 288.701 124.41 310.861 124.41 342.761C124.41 374.661 126.818 396.942 131.633 409.605C136.542 422.024 145.228 428.233 157.689 428.233H196.491C214.051 428.233 226.891 438.826 235.01 460.012C243.129 480.954 247.189 513.949 247.189 558.999C247.189 604.048 243.129 637.044 235.01 657.986C226.891 678.685 214.051 689.034 196.491 689.034H155.707Z" fill="#D9B666"/>
<path d="M303.865 689.764C301.505 689.764 299.664 688.06 298.342 684.651C297.02 681.241 296.36 676.493 296.36 670.405V237.929C296.36 231.842 297.02 227.093 298.342 223.684C299.664 220.275 301.505 218.57 303.865 218.57C306.131 218.57 307.925 220.275 309.246 223.684C310.568 227.093 311.229 231.842 311.229 237.929V670.405C311.229 676.493 310.568 681.241 309.246 684.651C307.925 688.06 306.131 689.764 303.865 689.764Z" fill="#D9B666"/>
<path d="M371.629 689.764C366.625 689.764 364.124 683.311 364.124 670.405V238.295C364.124 225.389 366.625 218.935 371.629 218.935C376.538 218.935 378.993 225.389 378.993 238.295V651.411H465.094C470.097 651.411 472.599 657.743 472.599 670.405C472.599 683.311 470.097 689.764 465.094 689.764H371.629Z" fill="#D9B666"/>
<path d="M513.242 689.764C508.238 689.764 505.736 683.311 505.736 670.405V238.295C505.736 225.389 508.238 218.935 513.242 218.935C518.151 218.935 520.606 225.389 520.606 238.295V448.323L604.724 225.876C608.123 216.866 611.569 216.744 615.062 225.51C618.744 234.277 618.838 243.408 615.345 252.905L551.902 420.563L626.532 659.447C629.648 669.431 629.317 678.441 625.541 686.477C621.67 694.513 618.224 693.661 615.203 683.92L541.565 448.323L520.606 503.478V670.405C520.606 683.311 518.151 689.764 513.242 689.764Z" fill="#D9B666"/>
<path d="M790.626 551.264C783.881 551.264 778.869 547.419 775.591 539.731C772.35 531.946 770.617 519.732 770.391 503.091C770.353 500.755 770.598 498.906 771.125 497.544C771.691 496.084 772.425 495.354 773.33 495.354C774.234 495.354 774.95 496.035 775.478 497.398C776.005 498.76 776.307 500.609 776.382 502.945C776.533 515.207 777.663 523.771 779.774 528.637C781.884 533.503 785.501 535.936 790.626 535.936H806.905C812.256 535.936 815.968 533.26 818.04 527.907C820.15 522.457 821.205 512.92 821.205 499.295C821.205 485.476 820.15 475.89 818.04 470.538C815.968 465.088 812.256 462.363 806.905 462.363H791.417C784.785 462.363 779.924 458.373 776.834 450.393C773.744 442.413 772.199 429.907 772.199 412.876C772.199 395.845 773.726 383.34 776.778 375.36C779.868 367.38 784.71 363.39 791.304 363.39H807.131C813.462 363.39 818.153 367.039 821.205 374.338C824.295 381.637 825.953 393.121 826.18 408.789C826.255 411.125 826.01 413.022 825.445 414.482C824.917 415.845 824.182 416.526 823.24 416.526C822.374 416.526 821.676 415.845 821.149 414.482C820.621 413.12 820.32 411.271 820.245 408.935C820.094 397.743 819.039 389.909 817.079 385.432C815.12 380.956 811.804 378.717 807.131 378.717H791.304C786.368 378.717 782.939 381.248 781.017 386.308C779.095 391.272 778.134 400.128 778.134 412.876C778.134 425.625 779.095 434.53 781.017 439.59C782.977 444.554 786.443 447.035 791.417 447.035H806.905C813.914 447.035 819.039 451.269 822.279 459.735C825.52 468.105 827.14 481.291 827.14 499.295C827.14 517.299 825.52 530.486 822.279 538.855C819.039 547.128 813.914 551.264 806.905 551.264H790.626Z" fill="#1E1E1E"/>
<path d="M1449.67 690.144C1447.59 693.31 1445.7 694.405 1444 693.431C1442.3 692.457 1440.79 689.413 1439.47 684.3L1393.02 493.63H1341.05V670.054C1341.05 682.96 1338.6 689.413 1333.69 689.413C1328.68 689.413 1326.18 682.96 1326.18 670.054V237.944C1326.18 225.038 1328.68 218.585 1333.69 218.585H1399.96C1416.1 218.585 1428.28 229.299 1436.5 250.728C1444.8 272.157 1448.96 303.692 1448.96 345.332V367.248C1448.96 404.018 1445.7 432.874 1439.19 453.816C1432.67 474.758 1423.04 487.543 1410.3 492.169L1452.07 663.845C1454.72 675.046 1453.92 683.813 1449.67 690.144ZM1341.05 455.277H1399.96C1411.86 455.277 1420.49 448.337 1425.88 434.457C1431.35 420.334 1434.09 397.931 1434.09 367.248V345.332C1434.09 314.406 1431.35 292.003 1425.88 278.123C1420.49 263.999 1411.86 256.938 1399.96 256.938H1341.05V455.277Z" fill="#D9B666"/>
<path d="M1547.34 689.413C1526.85 689.413 1511.89 677.238 1502.45 652.887C1493.01 628.536 1488.29 589.939 1488.29 537.097V370.536C1488.29 317.207 1493.01 278.488 1502.45 254.381C1511.89 230.03 1526.76 218.097 1547.06 218.585H1563.72C1584.2 218.585 1599.12 230.76 1608.46 255.111C1617.91 279.462 1622.63 318.059 1622.63 370.901V537.097C1622.63 589.939 1617.91 628.536 1608.46 652.887C1599.12 677.238 1584.2 689.413 1563.72 689.413H1547.34ZM1547.34 651.06H1563.72C1574.57 651.06 1583.21 647.408 1589.63 640.102C1596.05 632.797 1600.68 620.865 1603.51 604.306C1606.34 587.748 1607.76 565.344 1607.76 537.097V370.901C1607.76 342.897 1606.34 320.616 1603.51 304.057C1600.68 287.498 1596.05 275.566 1589.63 268.261C1583.21 260.712 1574.57 256.938 1563.72 256.938H1547.06C1536.2 256.694 1527.56 260.225 1521.14 267.53C1514.82 274.592 1510.24 286.524 1507.41 303.326C1504.57 319.885 1503.16 342.288 1503.16 370.536V537.097C1503.16 565.344 1504.57 587.748 1507.41 604.306C1510.24 620.865 1514.86 632.797 1521.28 640.102C1527.7 647.408 1536.39 651.06 1547.34 651.06Z" fill="#D9B666"/>
<path d="M1674.21 687.587C1669.68 682.473 1668.31 673.95 1670.1 662.018L1740.34 233.56C1741.85 223.576 1744.64 218.585 1748.7 218.585H1749.55C1753.42 218.828 1756.15 223.82 1757.76 233.56L1828 662.018C1829.89 673.95 1828.57 682.473 1824.03 687.587C1819.41 692.457 1816.2 689.048 1814.4 677.36L1795.57 562.301H1702.81L1683.98 677.36C1682.09 689.048 1678.83 692.457 1674.21 687.587ZM1708.9 523.948H1789.34L1749.12 279.219L1708.9 523.948Z" fill="#D9B666"/>
<path d="M1869.99 689.413C1864.99 689.413 1862.48 682.96 1862.48 670.054V237.944C1862.48 225.038 1864.99 218.585 1869.99 218.585H1938.25C1961.75 218.585 1978.84 232.465 1989.51 260.225C2000.27 287.985 2005.65 332.182 2005.65 392.817V515.181C2005.65 575.815 2000.27 620.013 1989.51 647.773C1978.84 675.533 1961.75 689.413 1938.25 689.413H1869.99ZM1877.35 651.06H1938.25C1951.09 651.06 1961.33 646.677 1968.98 637.911C1976.72 629.144 1982.29 614.899 1985.69 595.175C1989.09 575.207 1990.79 548.542 1990.79 515.181V392.817C1990.79 359.699 1989.09 333.278 1985.69 313.554C1982.29 293.586 1976.72 279.219 1968.98 270.452C1961.33 261.442 1951.09 256.938 1938.25 256.938H1877.35V651.06Z" fill="#D9B666"/>
<path d="M1183.53 549.828C1182.6 551.08 1181.76 551.513 1181 551.128C1180.25 550.743 1179.57 549.539 1178.98 547.517L1158.29 472.133H1135.14V541.885C1135.14 546.988 1134.05 549.539 1131.86 549.539C1129.64 549.539 1128.52 546.988 1128.52 541.885V371.044C1128.52 365.941 1129.64 363.39 1131.86 363.39H1161.39C1168.58 363.39 1174 367.626 1177.66 376.098C1181.36 384.57 1183.21 397.038 1183.21 413.501V422.166C1183.21 436.704 1181.76 448.112 1178.86 456.392C1175.96 464.672 1171.67 469.726 1165.99 471.556L1184.6 539.43C1185.78 543.859 1185.42 547.325 1183.53 549.828ZM1135.14 456.97H1161.39C1166.68 456.97 1170.53 454.226 1172.93 448.738C1175.37 443.154 1176.59 434.297 1176.59 422.166V413.501C1176.59 401.274 1175.37 392.417 1172.93 386.929C1170.53 381.345 1166.68 378.553 1161.39 378.553H1135.14V456.97Z" fill="#1E1E1E"/>
<path d="M629.481 880.554V785.427C629.481 779.964 630.79 777.232 633.406 777.232C636.022 777.232 637.33 779.964 637.33 785.427V867.056H652.56V785.427C652.56 779.964 653.868 777.232 656.485 777.232C659.101 777.232 660.409 779.964 660.409 785.427V867.056H675.639V785.427C675.639 779.964 676.947 777.232 679.564 777.232C682.18 777.232 683.488 779.964 683.488 785.427V880.554H629.481Z" fill="#D7AF56"/>
<path d="M701.926 880.554C699.434 880.554 698.188 877.876 698.188 872.519V784.463C698.188 779.107 699.434 776.429 701.926 776.429H741.73C744.845 776.429 746.402 778.786 746.402 783.499C746.402 787.784 744.845 789.927 741.73 789.927H706.037V815.315H730.237C733.726 815.315 735.47 817.672 735.47 822.385C735.47 826.67 733.726 828.813 730.237 828.813H706.037V867.056H741.73C744.845 867.056 746.402 869.413 746.402 874.126C746.402 878.411 744.845 880.554 741.73 880.554H701.926Z" fill="#D7AF56"/>
<path d="M796.46 881.679C793.844 881.679 792.536 879.054 792.536 873.805V789.927H774.596C772.478 789.927 771.061 790.382 770.344 791.292C769.628 792.149 769.27 793.89 769.27 796.515V858.218C769.27 863.467 768.834 867.752 767.962 871.073C767.121 874.341 765.766 876.751 763.897 878.304C762.06 879.804 759.646 880.554 756.656 880.554C753.417 880.554 751.797 878.304 751.797 873.805C751.797 869.306 753.417 867.056 756.656 867.056C758.151 867.056 759.132 866.654 759.599 865.851C760.066 864.994 760.3 863.253 760.3 860.629V798.764C760.3 793.087 760.72 788.641 761.561 785.427C762.402 782.16 763.804 779.857 765.766 778.518C767.759 777.125 770.485 776.429 773.942 776.429H800.384V873.805C800.384 879.054 799.076 881.679 796.46 881.679Z" fill="#D7AF56"/>
<path d="M818.907 881.679C817.754 881.679 816.82 881.009 816.104 879.67C815.418 878.331 815.076 876.537 815.076 874.287V787.998C815.076 785.802 815.434 783.954 816.15 782.455C816.867 780.901 817.879 780.125 819.187 780.125C821.679 780.125 822.925 782.749 822.925 787.998V825.278H830.4C831.241 825.278 832.19 824.554 833.249 823.108C834.308 821.609 835.554 819.198 836.987 815.877C838.42 812.503 840.117 807.977 842.079 802.299C842.733 800.425 843.527 798.229 844.462 795.711C845.396 793.14 846.471 790.676 847.685 788.32C848.931 785.909 850.333 783.928 851.89 782.374C853.479 780.767 855.223 779.964 857.123 779.964C860.362 779.964 861.981 782.374 861.981 787.195C861.981 789.766 861.514 791.373 860.58 792.015C859.677 792.658 858.524 793.14 857.123 793.462C855.783 793.783 854.569 795.095 853.479 797.398C852.42 799.648 851.049 803.103 849.367 807.763C847.935 811.78 846.782 814.994 845.91 817.404C845.069 819.814 844.322 821.823 843.668 823.43C843.014 825.037 842.235 826.617 841.332 828.17C840.46 829.67 839.245 831.544 837.688 833.794L837.501 829.616C839.432 832.294 841.129 835.106 842.593 838.052C844.088 840.945 845.412 843.837 846.564 846.729C847.717 849.622 848.776 852.38 849.741 855.005C851.392 859.343 852.731 862.53 853.759 864.565C854.818 866.547 855.97 867.752 857.216 868.181C857.683 868.342 858.291 868.556 859.038 868.824C859.817 869.038 860.502 869.6 861.094 870.511C861.685 871.421 861.981 872.948 861.981 875.09C861.981 879.483 860.455 881.679 857.403 881.679C855.129 881.679 852.778 880.393 850.348 877.822C847.95 875.198 845.63 871.288 843.387 866.092C842.889 864.86 842.126 862.985 841.098 860.468C840.101 857.897 839.183 855.54 838.342 853.398C836.442 848.47 834.807 844.801 833.436 842.391C832.097 839.98 830.773 838.775 829.465 838.775H822.925V874.287C822.925 876.43 822.551 878.197 821.803 879.59C821.087 880.982 820.121 881.679 818.907 881.679Z" fill="#D7AF56"/>
<path d="M894.891 882C889.97 882 885.703 880.393 882.09 877.179C878.477 873.966 875.69 869.413 873.727 863.521C871.765 857.629 870.784 850.666 870.784 842.632V814.351C870.784 806.317 871.765 799.353 873.727 793.462C875.69 787.57 878.477 783.017 882.09 779.803C885.703 776.59 889.97 774.983 894.891 774.983C899.781 774.983 904.032 776.616 907.645 779.884C911.258 783.097 914.045 787.65 916.008 793.542C918.001 799.434 918.998 806.37 918.998 814.351V842.632C918.998 850.613 918.001 857.549 916.008 863.441C914.045 869.333 911.258 873.912 907.645 877.179C904.032 880.393 899.781 882 894.891 882ZM894.891 868.502C900.186 868.502 904.219 866.253 906.991 861.753C909.763 857.201 911.149 850.666 911.149 842.15V814.833C911.149 805.995 909.747 799.407 906.944 795.068C904.141 790.676 900.123 788.48 894.891 788.48C889.627 788.48 885.594 790.73 882.791 795.229C880.019 799.728 878.633 806.263 878.633 814.833V842.15C878.633 850.666 880.019 857.201 882.791 861.753C885.594 866.253 889.627 868.502 894.891 868.502Z" fill="#D7AF56"/>
<path d="M935.427 880.554C932.936 880.554 931.69 877.876 931.69 872.519V784.463C931.69 779.107 932.936 776.429 935.427 776.429H952.993C961.185 776.429 967.056 778.491 970.606 782.615C974.188 786.686 975.979 793.462 975.979 802.942C975.979 807.013 975.683 810.468 975.091 813.306C974.531 816.145 973.705 818.556 972.615 820.537C975.045 822.84 976.867 826.215 978.081 830.661C979.296 835.106 979.903 840.543 979.903 846.97V850.023C979.903 857.629 979.14 863.655 977.614 868.101C976.088 872.546 973.565 875.733 970.046 877.661C966.526 879.59 961.776 880.554 955.797 880.554H935.427ZM939.538 867.056H955.797C959.223 867.056 962.119 866.815 964.486 866.333C966.853 865.851 968.597 864.86 969.719 863.36C970.653 862.075 971.276 860.361 971.587 858.218C971.899 856.022 972.055 853.291 972.055 850.023V847.452C972.055 843.971 971.883 841.132 971.541 838.936C971.198 836.686 970.528 834.972 969.532 833.794C968.504 832.401 967.025 831.491 965.093 831.062C963.194 830.634 960.655 830.42 957.478 830.42H939.538V867.056ZM939.538 816.922H952.993C957.042 816.922 960.157 816.574 962.337 815.877C964.517 815.128 966.028 813.815 966.869 811.941C967.71 810.012 968.13 807.281 968.13 803.746C968.13 800.264 967.71 797.586 966.869 795.711C966.059 793.837 964.564 792.551 962.384 791.855C960.204 791.105 957.073 790.73 952.993 790.73H939.538V816.922Z" fill="#D7AF56"/>
<path d="M995.559 881.679C993.067 881.679 991.822 879.054 991.822 873.805V783.82C991.822 778.893 993.13 776.429 995.746 776.429C998.362 776.429 999.67 778.839 999.67 783.66V802.139H1013.41C1017.77 802.139 1021.66 803.879 1025.09 807.361C1028.51 810.843 1031.21 815.583 1033.17 821.582C1035.13 827.581 1036.11 834.383 1036.11 841.989C1036.11 849.595 1035.13 856.397 1033.17 862.396C1031.21 868.342 1028.51 873.055 1025.09 876.537C1021.66 879.965 1017.77 881.679 1013.41 881.679H995.559ZM999.67 868.181H1013.41C1016.4 868.181 1019 867.11 1021.21 864.967C1023.45 862.825 1025.18 859.798 1026.39 855.888C1027.64 851.978 1028.26 847.372 1028.26 842.069C1028.26 836.82 1027.64 832.214 1026.39 828.25C1025.15 824.233 1023.4 821.127 1021.16 818.93C1018.95 816.734 1016.36 815.636 1013.41 815.636H999.67V868.181ZM1042.65 881.679C1040.04 881.679 1038.73 879.215 1038.73 874.287V782.856C1038.73 777.821 1040.04 775.304 1042.65 775.304C1045.27 775.304 1046.58 777.821 1046.58 782.856V874.287C1046.58 879.215 1045.27 881.679 1042.65 881.679Z" fill="#D7AF56"/>
<path d="M1065 881.679C1062.45 881.679 1061.17 879.108 1061.17 873.966V783.178C1061.17 777.929 1062.48 775.304 1065.09 775.304C1067.71 775.304 1069.02 778.089 1069.02 783.66V857.656L1101.63 779.402C1102.81 776.67 1104.15 775.304 1105.65 775.304C1108.14 775.304 1109.38 777.929 1109.38 783.178V873.966C1109.38 879.108 1108.07 881.679 1105.46 881.679C1102.84 881.679 1101.53 879.268 1101.53 874.448V799.487L1069.3 877.26C1068.55 879.081 1067.9 880.259 1067.34 880.795C1066.81 881.384 1066.03 881.679 1065 881.679ZM1079.48 779.161C1075.81 779.161 1073.22 777.554 1071.73 774.34C1070.23 771.073 1069.49 765.556 1069.49 757.789V750.88H1077.33V760.36C1077.33 762.77 1077.49 764.27 1077.8 764.859C1078.11 765.395 1078.92 765.663 1080.23 765.663H1089.76C1091.04 765.663 1091.82 765.395 1092.1 764.859C1092.41 764.27 1092.56 762.77 1092.56 760.36V750.88H1100.41V757.789C1100.41 765.663 1099.67 771.207 1098.17 774.42C1096.71 777.58 1094.12 779.161 1090.42 779.161H1079.48Z" fill="#D7AF56"/>
<path d="M1157.35 881.679C1154.73 881.679 1153.42 879.108 1153.42 873.966V776.429H1200.7V873.966C1200.7 879.108 1199.39 881.679 1196.78 881.679C1194.16 881.679 1192.85 879.108 1192.85 873.966V789.927H1161.27V873.966C1161.27 879.108 1159.96 881.679 1157.35 881.679Z" fill="#D7AF56"/>
<path d="M1224.35 881.518C1221.89 881.518 1219.85 880.822 1218.23 879.429C1216.64 877.983 1215.45 875.787 1214.68 872.841C1213.9 869.895 1213.51 866.199 1213.51 861.753C1213.51 855.754 1214.82 852.755 1217.43 852.755C1220.05 852.755 1221.36 855.38 1221.36 860.629C1221.36 863.575 1221.54 865.556 1221.92 866.574C1222.32 867.538 1223.1 868.02 1224.25 868.02C1225.34 868.02 1226.23 867.003 1226.92 864.967L1230.37 854.201L1212.06 785.668C1211.44 783.204 1211.42 781.062 1212.01 779.241C1212.64 777.366 1213.76 776.429 1215.38 776.429C1217.12 776.429 1218.48 778.116 1219.44 781.49L1235.47 840.864L1252.05 781.33C1252.89 778.062 1254.25 776.429 1256.12 776.429C1257.52 776.429 1258.53 777.259 1259.15 778.919C1259.81 780.526 1259.93 782.696 1259.53 785.427L1234.48 872.6C1233.71 875.278 1232.38 877.447 1230.51 879.108C1228.68 880.714 1226.62 881.518 1224.35 881.518Z" fill="#D7AF56"/>
<path d="M1285.49 881.679C1284.15 881.679 1283.09 881.009 1282.31 879.67C1281.56 878.385 1281.19 876.59 1281.19 874.287V789.927H1267.73C1266.33 789.927 1265.21 789.337 1264.37 788.159C1263.56 786.927 1263.15 785.267 1263.15 783.178C1263.15 781.089 1263.56 779.455 1264.37 778.277C1265.21 777.045 1266.33 776.429 1267.73 776.429H1303.33C1306.39 776.429 1307.91 778.678 1307.91 783.178C1307.91 787.677 1306.39 789.927 1303.33 789.927H1290.06V874.287C1290.06 876.483 1289.64 878.251 1288.8 879.59C1287.96 880.982 1286.86 881.679 1285.49 881.679Z" fill="#D7AF56"/>
<path d="M1320.86 881.679C1318.36 881.679 1317.12 879.054 1317.12 873.805V783.82C1317.12 778.893 1318.43 776.429 1321.04 776.429C1323.66 776.429 1324.97 778.839 1324.97 783.66V802.139H1338.7C1343.06 802.139 1346.94 803.879 1350.33 807.361C1353.76 810.789 1356.45 815.502 1358.42 821.501C1360.41 827.5 1361.41 834.33 1361.41 841.989C1361.41 849.595 1360.43 856.397 1358.46 862.396C1356.5 868.342 1353.81 873.055 1350.38 876.537C1346.96 879.965 1343.06 881.679 1338.7 881.679H1320.86ZM1324.97 868.181H1338.7C1341.69 868.181 1344.29 867.11 1346.5 864.967C1348.75 862.771 1350.47 859.718 1351.69 855.808C1352.94 851.844 1353.56 847.238 1353.56 841.989C1353.56 836.686 1352.94 832.08 1351.69 828.17C1350.47 824.206 1348.75 821.127 1346.5 818.93C1344.29 816.734 1341.69 815.636 1338.7 815.636H1324.97V868.181Z" fill="#D7AF56"/>
<path d="M952.95 654.986H940.411C939.45 654.986 938.969 654.34 938.969 653.049C938.969 650.989 939.204 649.237 939.673 647.792C940.154 646.332 940.763 645.102 941.5 644.103C942.249 643.089 943.043 642.236 943.881 641.544C944.719 640.837 945.496 640.199 946.211 639.63C947.452 638.662 948.486 637.824 949.313 637.117C950.151 636.41 950.777 635.688 951.19 634.95C951.604 634.212 951.81 633.313 951.81 632.252C951.81 630.423 951.57 629.193 951.09 628.563C950.62 627.918 949.732 627.595 948.424 627.595H944.837C943.786 627.595 943.009 627.787 942.506 628.171C942.003 628.555 941.685 629.27 941.551 630.315C941.473 630.93 941.322 631.399 941.098 631.722C940.875 632.045 940.534 632.206 940.076 632.206C939.606 632.206 939.248 632.037 939.003 631.699C938.757 631.345 938.656 630.838 938.701 630.177C938.936 628.01 939.556 626.396 940.562 625.335C941.568 624.259 942.993 623.721 944.837 623.721H948.424C950.525 623.721 952.084 624.421 953.101 625.819C954.118 627.218 954.627 629.362 954.627 632.252C954.627 634.097 954.297 635.641 953.638 636.886C952.978 638.116 952.112 639.207 951.039 640.16C949.966 641.098 948.815 642.043 947.586 642.996C946.692 643.703 945.842 644.41 945.038 645.118C944.244 645.825 943.562 646.647 942.993 647.585C942.434 648.522 942.065 649.698 941.886 651.112H952.95C953.889 651.112 954.359 651.758 954.359 653.049C954.359 654.34 953.889 654.986 952.95 654.986Z" fill="#1E1E1E"/>
<path d="M966.905 654.94C964.345 654.94 962.451 654.102 961.222 652.426C960.004 650.736 959.394 648.13 959.394 644.61V633.958C959.394 630.408 960.004 627.795 961.222 626.119C962.451 624.444 964.345 623.629 966.905 623.675H968.917C971.487 623.675 973.381 624.513 974.6 626.188C975.818 627.848 976.427 630.454 976.427 634.004V644.61C976.427 648.13 975.818 650.736 974.6 652.426C973.381 654.102 971.487 654.94 968.917 654.94H966.905ZM966.905 651.066H968.917C970.112 651.066 971.051 650.866 971.733 650.467C972.415 650.067 972.895 649.398 973.175 648.461C973.465 647.523 973.61 646.24 973.61 644.61V634.004C973.61 632.36 973.465 631.069 973.175 630.131C972.895 629.193 972.415 628.532 971.733 628.148C971.051 627.748 970.112 627.549 968.917 627.549H966.905C965.72 627.518 964.787 627.695 964.105 628.079C963.423 628.448 962.937 629.109 962.647 630.062C962.356 630.999 962.211 632.298 962.211 633.958V644.61C962.211 646.24 962.351 647.523 962.63 648.461C962.921 649.398 963.407 650.067 964.088 650.467C964.77 650.866 965.709 651.066 966.905 651.066Z" fill="#1E1E1E"/>
<path d="M995.156 654.986H982.616C981.655 654.986 981.174 654.34 981.174 653.049C981.174 650.989 981.409 649.237 981.878 647.792C982.359 646.332 982.968 645.102 983.706 644.103C984.454 643.089 985.248 642.236 986.086 641.544C986.924 640.837 987.701 640.199 988.416 639.63C989.657 638.662 990.691 637.824 991.518 637.117C992.356 636.41 992.982 635.688 993.395 634.95C993.809 634.212 994.016 633.313 994.016 632.252C994.016 630.423 993.775 629.193 993.295 628.563C992.825 627.918 991.937 627.595 990.629 627.595H987.042C985.991 627.595 985.214 627.787 984.712 628.171C984.209 628.555 983.89 629.27 983.756 630.315C983.678 630.93 983.527 631.399 983.303 631.722C983.08 632.045 982.739 632.206 982.281 632.206C981.811 632.206 981.454 632.037 981.208 631.699C980.962 631.345 980.861 630.838 980.906 630.177C981.141 628.01 981.761 626.396 982.767 625.335C983.773 624.259 985.198 623.721 987.042 623.721H990.629C992.73 623.721 994.289 624.421 995.307 625.819C996.324 627.218 996.832 629.362 996.832 632.252C996.832 634.097 996.502 635.641 995.843 636.886C995.184 638.116 994.317 639.207 993.245 640.16C992.172 641.098 991.02 642.043 989.791 642.996C988.897 643.703 988.048 644.41 987.243 645.118C986.449 645.825 985.768 646.647 985.198 647.585C984.639 648.522 984.27 649.698 984.091 651.112H995.156C996.094 651.112 996.564 651.758 996.564 653.049C996.564 654.34 996.094 654.986 995.156 654.986Z" fill="#1E1E1E"/>
<path d="M1006.61 654.986C1004.66 654.986 1003.14 654.425 1002.07 653.303C1001.01 652.165 1000.36 650.421 1000.14 648.069C1000.1 647.423 1000.2 646.924 1000.44 646.57C1000.69 646.217 1001.05 646.04 1001.51 646.04C1002.38 646.04 1002.86 646.685 1002.96 647.977C1003.11 649.175 1003.46 649.998 1004.01 650.444C1004.56 650.889 1005.43 651.112 1006.61 651.112H1010.43C1011.88 651.112 1012.85 650.759 1013.37 650.052C1013.89 649.329 1014.15 647.992 1014.15 646.04C1014.15 644.103 1013.89 642.774 1013.37 642.051C1012.85 641.329 1011.88 640.967 1010.43 640.967H1007.85C1006.91 640.967 1006.44 640.322 1006.44 639.031C1006.44 637.74 1006.91 637.094 1007.85 637.094H1011.71C1012.41 637.094 1012.9 636.664 1013.18 635.803C1013.47 634.927 1013.62 633.743 1013.62 632.252C1013.62 630.423 1013.38 629.193 1012.9 628.563C1012.43 627.918 1011.54 627.595 1010.23 627.595H1006.98C1005.93 627.595 1005.15 627.787 1004.65 628.171C1004.15 628.555 1003.83 629.27 1003.69 630.315C1003.56 631.576 1003.07 632.206 1002.22 632.206C1001.75 632.206 1001.39 632.037 1001.15 631.699C1000.9 631.345 1000.81 630.838 1000.88 630.177C1001.1 628.01 1001.72 626.396 1002.72 625.335C1003.74 624.259 1005.16 623.721 1006.98 623.721H1010.23C1012.33 623.721 1013.89 624.421 1014.91 625.819C1015.93 627.218 1016.43 629.362 1016.43 632.252C1016.43 635.096 1015.85 637.109 1014.69 638.293C1015.46 638.985 1016.03 639.968 1016.4 641.244C1016.78 642.52 1016.97 644.118 1016.97 646.04C1016.97 649.083 1016.44 651.335 1015.38 652.795C1014.32 654.256 1012.67 654.986 1010.43 654.986H1006.61Z" fill="#1E1E1E"/>
</svg>
